<svg width="32" height="32" viewBox="0 0 32 32" xmlns="http://www.w3.org/2000/svg">
  <defs>
    <linearGradient id="gradient" x1="0%" y1="0%" x2="100%" y2="100%">
      <stop offset="0%" style="stop-color:hsl(142, 71%, 45%);stop-opacity:1" />
      <stop offset="100%" style="stop-color:hsl(142, 71%, 35%);stop-opacity:1" />
    </linearGradient>
  </defs>
  
  <!-- Background with rounded corners -->
  <rect width="32" height="32" rx="6" ry="6" fill="url(#gradient)" />
  
  <!-- Leaf icon (centered, 20x20) -->
  <path d="M11 20A7 7 0 0 1 11 6c1.33 0 2.67.33 4 1l-4 4 4 4c-1.33.67-2.67 1-4 1z" 
        fill="hsl(0, 0%, 98%)" 
        transform="translate(6, 6)"/>
  <path d="M15 20c-1.33 0-2.67-.33-4-1l4-4-4-4c1.33-.67 2.67-1 4-1a7 7 0 0 1 0 14z" 
        fill="hsl(0, 0%, 98%)" 
        transform="translate(6, 6)"/>
</svg>